<svg xmlns="http://www.w3.org/2000/svg" width="39.043" height="39.043" viewBox="0 0 39.043 39.043"><defs><style>.a{fill:#fff;}</style></defs><path class="a" d="M291.5,508.668q-.319.052-.64.1Q291.177,508.72,291.5,508.668Zm0,0" transform="translate(-268.763 -469.957)"/><path class="a" d="M299.645,507.793l-.3.053Zm0,0" transform="translate(-276.556 -469.169)"/><path class="a" d="M278.36,510.34q-.373.042-.75.074Q277.986,510.382,278.36,510.34Zm0,0" transform="translate(-256.537 -471.462)"/><path class="a" d="M286.805,509.738c-.12.016-.24.031-.36.045C286.565,509.769,286.686,509.754,286.805,509.738Zm0,0" transform="translate(-264.65 -470.921)"/><path class="a" d="M306.933,506.41l-.269.056Zm0,0" transform="translate(-283.317 -467.924)"/><path class="a" d="M324.7,502.113l-.217.06Zm0,0" transform="translate(-299.773 -464.056)"/><path class="a" d="M319.3,503.543l-.237.062Zm0,0" transform="translate(-294.763 -465.343)"/><path class="a" d="M312.318,505.254l-.252.056Zm0,0" transform="translate(-288.306 -466.883)"/><path class="a" d="M273.884,511.09q-.2.017-.4.03Q273.683,511.107,273.884,511.09Zm0,0" transform="translate(-252.677 -472.138)"/><path class="a" d="M39.043,19.521A19.521,19.521,0,1,0,19.521,39.043c.115,0,.229,0,.343,0v-15.2H15.671V18.954h4.194v-3.6c0-4.171,2.547-6.442,6.268-6.442a34.525,34.525,0,0,1,3.76.192v4.36H27.326c-2.024,0-2.416.962-2.416,2.374v3.113h4.84l-.631,4.888H24.91V38.289A19.532,19.532,0,0,0,39.043,19.521Zm0,0"/><path class="a" d="M265.69,511.43q-.4.026-.8.04Q265.292,511.456,265.69,511.43Zm0,0" transform="translate(-244.79 -472.444)"/><path class="a" d="M260.928,511.836q-.211.007-.424.01Q260.716,511.843,260.928,511.836Zm0,0" transform="translate(-240.69 -472.809)"/></svg>