<svg xmlns="http://www.w3.org/2000/svg" width="39.043" height="40.062" viewBox="0 0 39.043 40.062"><defs><style>.a{fill:#fff;}</style></defs><path class="a" d="M214.668,210.834A3.834,3.834,0,1,1,210.834,207,3.834,3.834,0,0,1,214.668,210.834Zm0,0" transform="translate(-191.313 -190.803)"/><path class="a" d="M153.88,138.134a3.809,3.809,0,0,0-2.183-2.183,6.363,6.363,0,0,0-2.136-.4c-1.213-.055-1.577-.067-4.648-.067s-3.435.012-4.648.067a6.368,6.368,0,0,0-2.136.4,3.811,3.811,0,0,0-2.183,2.183,6.366,6.366,0,0,0-.4,2.136c-.055,1.213-.067,1.577-.067,4.648s.012,3.435.067,4.648a6.364,6.364,0,0,0,.4,2.136,3.809,3.809,0,0,0,2.183,2.183,6.356,6.356,0,0,0,2.136.4c1.213.055,1.576.067,4.648.067s3.435-.012,4.648-.067a6.356,6.356,0,0,0,2.136-.4,3.809,3.809,0,0,0,2.183-2.183,6.369,6.369,0,0,0,.4-2.136c.055-1.213.067-1.577.067-4.648s-.012-3.435-.067-4.648A6.356,6.356,0,0,0,153.88,138.134Zm-8.966,12.69a5.906,5.906,0,1,1,5.906-5.906A5.906,5.906,0,0,1,144.914,150.824Zm6.14-10.666a1.38,1.38,0,1,1,1.38-1.38A1.38,1.38,0,0,1,151.054,140.158Zm0,0" transform="translate(-125.393 -124.887)"/><path class="a" d="M19.521,0A19.783,19.783,0,0,0,0,20.031,19.783,19.783,0,0,0,19.521,40.061,19.783,19.783,0,0,0,39.043,20.031,19.783,19.783,0,0,0,19.521,0ZM30.663,24.773a8.631,8.631,0,0,1-.521,2.792,5.809,5.809,0,0,1-3.278,3.364,8.047,8.047,0,0,1-2.721.535c-1.2.056-1.577.069-4.622.069s-3.426-.013-4.622-.069a8.047,8.047,0,0,1-2.721-.535A5.48,5.48,0,0,1,10.194,29.6,5.653,5.653,0,0,1,8.9,27.565a8.629,8.629,0,0,1-.521-2.792c-.055-1.227-.068-1.619-.068-4.742s.013-3.516.068-4.742A8.632,8.632,0,0,1,8.9,12.5a5.651,5.651,0,0,1,1.293-2.037,5.479,5.479,0,0,1,1.985-1.327A8.049,8.049,0,0,1,14.9,8.6c1.2-.056,1.577-.069,4.622-.069s3.426.013,4.622.07a8.051,8.051,0,0,1,2.721.534,5.484,5.484,0,0,1,1.986,1.327A5.652,5.652,0,0,1,30.142,12.5a8.63,8.63,0,0,1,.521,2.792c.055,1.227.067,1.618.067,4.742S30.718,23.546,30.663,24.773Zm0,0"/></svg>