<svg xmlns="http://www.w3.org/2000/svg" width="39.043" height="39.043" viewBox="0 0 39.043 39.043"><defs><style>.a{fill:#fff;}</style></defs><path class="a" d="M19.521,0A19.521,19.521,0,1,0,39.043,19.521,19.524,19.524,0,0,0,19.521,0ZM13.849,29.511H9.094v-14.3h4.754ZM11.472,13.254h-.031A2.478,2.478,0,1,1,11.5,8.312a2.479,2.479,0,1,1-.032,4.942Zm19.52,16.257H26.238V21.859c0-1.923-.688-3.235-2.409-3.235a2.6,2.6,0,0,0-2.439,1.739,3.256,3.256,0,0,0-.156,1.16v7.988H16.48s.062-12.962,0-14.3h4.754v2.025a4.72,4.72,0,0,1,4.285-2.361c3.128,0,5.473,2.044,5.473,6.438Zm0,0"/></svg>