<svg xmlns="http://www.w3.org/2000/svg" width="170.134" height="74.722" viewBox="0 0 170.134 74.722"><defs><style>.a{isolation:isolate;}</style></defs><g class="a" transform="translate(-7.551 -12.031)"><path d="M53.851,65.722H40.257V63.838c.433-.039.887-.076,1.355-.117a5.25,5.25,0,0,0,1.214-.226,2.046,2.046,0,0,0,1.184-.9,3.213,3.213,0,0,0,.387-1.668V43.551a3.4,3.4,0,0,0-.418-1.668,3.657,3.657,0,0,0-1.153-1.27,5.284,5.284,0,0,0-1.572-.585,11.79,11.79,0,0,0-1.884-.3V37.844l9.941-.63.4.4V60.58a3.236,3.236,0,0,0,.383,1.658,2.276,2.276,0,0,0,1.2.971,10.575,10.575,0,0,0,1.22.415,7.787,7.787,0,0,0,1.335.214Z" transform="translate(10.548 8.348)"/><path d="M77.213,62.921a8.382,8.382,0,0,1,1.8,2.458,7.812,7.812,0,0,1,.655,3.4,8.472,8.472,0,0,1-.881,3.813,8.588,8.588,0,0,1-2.686,3.1,14.964,14.964,0,0,1-4.57,2.085,24.87,24.87,0,0,1-6.571.742q-6.4,0-9.573-1.869a6,6,0,0,1-3.169-5.472,5.4,5.4,0,0,1,2.287-4.6A10.276,10.276,0,0,1,60.33,64.75v-.4a17.433,17.433,0,0,1-1.77-.642,6.9,6.9,0,0,1-1.571-.9,4.87,4.87,0,0,1-1.2-1.414,4.042,4.042,0,0,1-.458-2.016A4.216,4.216,0,0,1,56.4,56.6a8.413,8.413,0,0,1,3.24-2.185v-.43a11.092,11.092,0,0,1-4.258-3.3,7.578,7.578,0,0,1-1.511-4.671,8.286,8.286,0,0,1,2.983-6.571,11.309,11.309,0,0,1,7.644-2.57,12.924,12.924,0,0,1,2.555.257q1.268.258,2.584.658h9.83v2.742H72.84V40.7a8.249,8.249,0,0,1,1.571,2.712,8.862,8.862,0,0,1,.514,2.915,7.958,7.958,0,0,1-3.012,6.283A10.473,10.473,0,0,1,64.9,55.182H61.443a4.457,4.457,0,0,0-1.37.83,2.018,2.018,0,0,0-.716,1.627,2.094,2.094,0,0,0,.6,1.612,3.146,3.146,0,0,0,1.461.758,8.859,8.859,0,0,0,1.925.285q1.1.06,2.272.087,1.254.03,3.442.17t3.1.172a7.541,7.541,0,0,1,2.646.63A8.571,8.571,0,0,1,77.213,62.921Zm-2.226,6.913a4.388,4.388,0,0,0-.746-2.628,3.744,3.744,0,0,0-2.257-1.4c-.535-.076-1.628-.161-3.286-.257s-3.578-.144-5.769-.144a7.9,7.9,0,0,0-4.383,2.013,5.171,5.171,0,0,0-1.3,3.643,4.459,4.459,0,0,0,.427,1.915,4.539,4.539,0,0,0,1.487,1.686,8.234,8.234,0,0,0,2.686,1.214,15.571,15.571,0,0,0,4.112.471,11.753,11.753,0,0,0,6.609-1.615A5.488,5.488,0,0,0,74.987,69.835ZM69.5,46.21a9.312,9.312,0,0,0-1.355-5.325A4.356,4.356,0,0,0,64.33,38.9a4.461,4.461,0,0,0-2.3.557,4.249,4.249,0,0,0-1.558,1.584,6.658,6.658,0,0,0-.816,2.273,15.181,15.181,0,0,0-.241,2.726A8.872,8.872,0,0,0,60.8,51.211a4.192,4.192,0,0,0,3.583,2,4.278,4.278,0,0,0,3.784-1.985A8.819,8.819,0,0,0,69.5,46.21Z" transform="translate(14.806 8.234)"/><path d="M89.1,65.722H75.5V63.838c.433-.039.887-.076,1.355-.117a5.264,5.264,0,0,0,1.214-.226,2.046,2.046,0,0,0,1.184-.9,3.213,3.213,0,0,0,.387-1.668V43.551a3.41,3.41,0,0,0-.418-1.668,3.657,3.657,0,0,0-1.153-1.27,5.284,5.284,0,0,0-1.572-.585,11.813,11.813,0,0,0-1.884-.3V37.844l9.941-.63.4.4V60.58a3.236,3.236,0,0,0,.382,1.658,2.274,2.274,0,0,0,1.2.971,10.49,10.49,0,0,0,1.22.415,7.792,7.792,0,0,0,1.334.214Z" transform="translate(22.231 8.348)"/><path d="M129.9,65.322c-.891.325-1.678.585-2.353.786a8.161,8.161,0,0,1-2.3.3,5.607,5.607,0,0,1-3.558-1.043,4.822,4.822,0,0,1-1.7-3.044h-.172a13.926,13.926,0,0,1-3.985,3.145,11.17,11.17,0,0,1-5.125,1.082,7.254,7.254,0,0,1-5.214-1.943,6.693,6.693,0,0,1-2.041-5.084,8.715,8.715,0,0,1,.454-2.912,6.994,6.994,0,0,1,1.37-2.315,6.878,6.878,0,0,1,1.889-1.526,16.034,16.034,0,0,1,2.2-1.073q1.284-.485,5.215-1.8a39.633,39.633,0,0,0,5.3-2.056V45.012a11.8,11.8,0,0,0-.156-1.429,5.994,5.994,0,0,0-.671-2,5.689,5.689,0,0,0-1.612-1.844,4.833,4.833,0,0,0-2.957-.787,6.641,6.641,0,0,0-2.443.443,4.4,4.4,0,0,0-1.583.929,7.751,7.751,0,0,0,.268,1.686,8.713,8.713,0,0,1,.272,2.056,2.451,2.451,0,0,1-.9,1.829,3.562,3.562,0,0,1-2.5.826,2.343,2.343,0,0,1-2.1-1.012,4.005,4.005,0,0,1,.257-4.784,9.291,9.291,0,0,1,2.413-2.144,13.113,13.113,0,0,1,3.114-1.355,12.175,12.175,0,0,1,3.572-.558,23.433,23.433,0,0,1,4.182.328,7.722,7.722,0,0,1,3.245,1.414,6.619,6.619,0,0,1,2.212,2.872,12.248,12.248,0,0,1,.756,4.671q0,4.084-.087,7.241t-.085,6.9a3.483,3.483,0,0,0,.387,1.771,3.118,3.118,0,0,0,1.185,1.117,2.93,2.93,0,0,0,1.355.284c.619.02,1.254.028,1.9.028Zm-9.966-15.083q-2.433.717-4.257,1.4a17.227,17.227,0,0,0-3.4,1.718,7.736,7.736,0,0,0-2.257,2.3,5.878,5.878,0,0,0-.827,3.162,4.456,4.456,0,0,0,1.245,3.491,4.529,4.529,0,0,0,3.154,1.12,6.472,6.472,0,0,0,3.572-.991,10.381,10.381,0,0,0,2.6-2.333Z" transform="translate(31.789 8.234)"/><path d="M139.112,69.634h-13.74V67.75c.438-.039.907-.081,1.4-.129A6.625,6.625,0,0,0,128,67.4a2.117,2.117,0,0,0,1.2-.9,3.13,3.13,0,0,0,.4-1.674V32.187a4.36,4.36,0,0,0-.443-1.931A3.761,3.761,0,0,0,128,28.844a5.891,5.891,0,0,0-1.884-.63,17.307,17.307,0,0,0-2.2-.342V26.042l10.6-.627.4.429V64.491a3.251,3.251,0,0,0,.373,1.643,2.365,2.365,0,0,0,1.2.985,6.483,6.483,0,0,0,1.238.427,9.193,9.193,0,0,0,1.386.2Z" transform="translate(38.573 4.437)"/><path d="M103.966,64.806c-.921.085-1.622.128-2.1.128a5.89,5.89,0,0,1-2.459-.429,2.913,2.913,0,0,1-1.37-1.257,5.527,5.527,0,0,1-.615-2.07,28.416,28.416,0,0,1-.125-2.955V42.483h8.026V39.741H97.239V30.972H95.364a17.255,17.255,0,0,1-1.446,2.073A18.179,18.179,0,0,1,92.045,34.8v4.945h-5.2v2.742h5.085v19.08a7.826,7.826,0,0,0,1.441,5.042q1.444,1.786,4.984,1.786a13.448,13.448,0,0,0,4.056-.529c1.108-.35,2.277-.784,3.516-1.3V64.479A9.338,9.338,0,0,1,103.966,64.806Z" transform="translate(26.284 6.279)"/><path d="M44.458,45.619a17.529,17.529,0,0,0-5.6-6.656,21.48,21.48,0,0,0-6.167-3.044,23.634,23.634,0,0,0-7.2-1.126H7.777v2.028a15.922,15.922,0,0,1,1.774.257,7.919,7.919,0,0,1,1.915.628,2.481,2.481,0,0,1,1.3,1.229,4.432,4.432,0,0,1,.328,1.74V69.927a3.7,3.7,0,0,1-.387,1.756,2.438,2.438,0,0,1-1.24,1.1,6.969,6.969,0,0,1-1.759.358,19.722,19.722,0,0,1-2.156.156v2.028H19.175V37.25c.478-.02,1.2-.043,2.186-.073s1.86-.043,2.64-.043a14.909,14.909,0,0,1,6.388,1.343,13.95,13.95,0,0,1,4.837,3.68A17.019,17.019,0,0,1,38.4,47.909a23.616,23.616,0,0,1,1.084,7.379,29.515,29.515,0,0,1-.811,7.293,15.979,15.979,0,0,1-2.586,5.55,11.477,11.477,0,0,1-4.4,3.57,14.688,14.688,0,0,1-6.339,1.284,13.283,13.283,0,0,1-2.429-.221v2.563h1.426a27.52,27.52,0,0,0,8.087-1.2A22.008,22.008,0,0,0,39.485,70.5a18.384,18.384,0,0,0,5.058-6.227,19.459,19.459,0,0,0,1.94-8.969A21.684,21.684,0,0,0,44.458,45.619Z" transform="translate(0 7.545)"/><g transform="translate(7.551 12.031)"><path d="M15.278,38.28a7.441,7.441,0,0,1-5.467-2.26,7.437,7.437,0,0,1-2.26-5.468V19.739a7.423,7.423,0,0,1,2.26-5.45,7.45,7.45,0,0,1,5.467-2.258h9.26a7.712,7.712,0,0,1,7.725,7.708V30.552a7.715,7.715,0,0,1-7.725,7.728Zm0-23.163a4.519,4.519,0,0,0-3.289,1.353,4.458,4.458,0,0,0-1.353,3.269V30.552a4.617,4.617,0,0,0,4.642,4.642h9.26a4.646,4.646,0,0,0,4.64-4.642V19.739a4.648,4.648,0,0,0-4.64-4.622Z" transform="translate(-7.551 -12.031)"/><path d="M34.709,15.117a3.1,3.1,0,0,0-3.085,3.088v1.534a3.1,3.1,0,0,0,3.085,3.106H47.08a6.164,6.164,0,0,1,6.171,6.175v3.085A6.2,6.2,0,0,1,47.08,38.28H28.538V35.194H47.08a3.1,3.1,0,0,0,3.086-3.088V29.021a2.937,2.937,0,0,0-.908-2.181,2.972,2.972,0,0,0-2.178-.907H34.709a6.2,6.2,0,0,1-6.171-6.194V18.205a6.167,6.167,0,0,1,6.171-6.174H53.252v3.086Z" transform="translate(-0.594 -12.031)"/><path d="M52.611,12.031V35.194H74.24V38.28H49.526V12.031Z" transform="translate(6.363 -12.031)"/><path d="M78.241,38.28a7.715,7.715,0,0,1-7.727-7.728V19.739a7.712,7.712,0,0,1,7.727-7.708H87.5a7.712,7.712,0,0,1,7.727,7.708V30.552A7.715,7.715,0,0,1,87.5,38.28Zm0-23.163a4.519,4.519,0,0,0-3.289,1.353A4.458,4.458,0,0,0,73.6,19.739V30.552a4.617,4.617,0,0,0,4.642,4.642H87.5a4.646,4.646,0,0,0,4.642-4.642V19.739A4.648,4.648,0,0,0,87.5,15.117Z" transform="translate(13.32 -12.031)"/></g></g></svg>